<?xml version="1.0" encoding="UTF-8"?><svg id="Calque_1" xmlns="http://www.w3.org/2000/svg" viewBox="0 0 171.3 132"><path d="M49.6,0V91.72h-16v-7.4h-.2c-2.7,4.7-7.7,9-16.8,9-9.9,0-16.6-6.5-16.6-18.2L.5,0H15.5l.5,70.02c0,7.7,2.7,10.3,8,10.3,6.1,0,9.6-3.1,9.6-10.2V0h16Z"/><path d="M107,57.12v34.6h-16v-29.5c0-7.7-2.7-10.3-8-10.3-6.1,0-9.6,3.1-9.6,10.2v29.6h-16V40.52h16v7.4h.2c2.7-4.7,7.7-9,16.8-9,9.9,0,16.6,6.5,16.6,18.2Z"/><path d="M114.4,27.32c0-4.6,3.5-7.1,8-7.1s8,2.5,8,7.1-3.5,7.1-8,7.1-8-2.4-8-7.1Zm16,13.2v91.48h-16V40.52h16Z"/><path d="M171.3,40.02v14h-.2c-8.2-1.5-16.9,3-16.9,13.9v23.8h-16V40.52h16v8.4h.2c2.5-5.7,6.9-9.3,12.5-9.3,1.4,0,2.6,0,4.4,.4Z"/></svg>