<svg width="20" height="20" viewBox="0 0 20 20" fill="none" xmlns="http://www.w3.org/2000/svg">
<path d="M10.626 19.637C10.8614 19.3949 10.9847 19.0869 10.9958 18.7129C11.0061 18.3388 10.8935 18.0308 10.6581 17.7888L4.36597 11.3201H18.7159C19.0797 11.3201 19.3849 11.1934 19.6315 10.9399C19.8772 10.6873 20 10.374 20 10C20 9.62596 19.8772 9.31221 19.6315 9.05875C19.3849 8.80616 19.0797 8.67987 18.7159 8.67987H4.36597L10.6581 2.21122C10.8935 1.9692 11.0061 1.66117 10.9958 1.28713C10.9847 0.913091 10.8614 0.60506 10.626 0.363036C10.3906 0.121012 10.091 0 9.72713 0C9.3633 0 9.06367 0.121012 8.82825 0.363036L0.353132 9.07591C0.224721 9.18592 0.133547 9.32321 0.0796146 9.48779C0.0265381 9.65325 0 9.82398 0 10C0 10.176 0.0265381 10.341 0.0796146 10.495C0.133547 10.6491 0.224721 10.7921 0.353132 10.9241L8.82825 19.637C9.06367 19.879 9.3633 20 9.72713 20C10.091 20 10.3906 19.879 10.626 19.637Z" fill="white"/>
</svg>
