<svg width="75" height="57" viewBox="0 0 75 57" fill="none" xmlns="http://www.w3.org/2000/svg">
<path d="M22 0V39.3142H14.9032V36.1423H14.8145C13.6169 38.1569 11.3992 40 7.3629 40C2.97177 40 0 37.2139 0 32.1989V0H7.09677V30.0129C7.09677 33.3133 8.29436 34.4278 10.6452 34.4278C13.3508 34.4278 14.9032 33.099 14.9032 30.0557V0H22Z" fill="white"/>
<path d="M47 24.928V40H39.9032V27.1496C39.9032 23.7955 38.7056 22.6629 36.3548 22.6629C33.6492 22.6629 32.0968 24.0133 32.0968 27.1061V40H25V17.697H32.0968V20.9205H32.1855C33.3831 18.8731 35.6008 17 39.6371 17C44.0282 17 47 19.8314 47 24.928Z" fill="white"/>
<path d="M50 12.0488C50 10.0735 51.5313 9 53.5 9C55.4688 9 57 10.0735 57 12.0488C57 14.0242 55.4688 15.0977 53.5 15.0977C51.5313 15.0977 50 14.0671 50 12.0488ZM57 17.7171V57H50V17.7171H57Z" fill="white"/>
<path d="M75 17.1766V23.357H74.9154C71.4471 22.6948 67.7674 24.6814 67.7674 29.4933V40H61V17.3973H67.7674V21.1056H67.852C68.9094 18.5893 70.7704 17 73.139 17C73.7311 17 74.2387 17 75 17.1766Z" fill="white"/>
</svg>
